<?xml version="1.0" encoding="UTF-8"?>
<svg id="Capa_1" xmlns="http://www.w3.org/2000/svg" xmlns:xlink="http://www.w3.org/1999/xlink" version="1.1" viewBox="0 0 640 1080">
  <!-- Generator: Adobe Illustrator 29.1.0, SVG Export Plug-In . SVG Version: 2.1.0 Build 142)  -->
  <defs>
    <style>
      .st0, .st1, .st2 {
        fill: none;
      }

      .st3 {
        fill: #1e4123;
      }

      .st4 {
        fill: #ab8620;
      }

      .st5 {
        fill: #ec644e;
      }

      .st6 {
        fill: #263238;
      }

      .st1, .st2 {
        stroke: #263238;
        stroke-linecap: round;
        stroke-width: 2.5px;
      }

      .st7 {
        fill: #a0a0a0;
      }

      .st8 {
        clip-path: url(#clippath-1);
      }

      .st9 {
        clip-path: url(#clippath-2);
      }

      .st10 {
        fill: #133217;
      }

      .st11 {
        fill: #fff;
      }

      .st12 {
        fill: #121212;
      }

      .st13 {
        fill: #fcd8c3;
      }

      .st2 {
        stroke-linejoin: round;
      }

      .st14 {
        clip-path: url(#clippath);
      }

      .st15 {
        fill: #f6f2ea;
      }
    </style>
    <clipPath id="clippath">
      <rect class="st0" y=".4" width="640" height="1079.6"/>
    </clipPath>
    <clipPath id="clippath-1">
      <rect class="st0" y="0" width="640" height="1080"/>
    </clipPath>
    <clipPath id="clippath-2">
      <rect class="st0" x="136" y="619" width="473.5" height="422.2"/>
    </clipPath>
  </defs>
  <g id="Grupo_1805">
    <rect id="Rectángulo_3" class="st10" y="0" width="640" height="1080"/>
    <g class="st14">
      <g id="Cuadrícula_de_repetición_1">
        <path id="Trazado_89" class="st3" d="M89,.4l91,149.6H7s87.1,8.3,107.6-29.1C135.1,83.5,89,.4,89,.4Z"/>
        <path id="Trazado_89-2" class="st3" d="M242,.4l91,149.6h-173s87.1,8.3,107.6-29.1C288.1,83.5,242,.4,242,.4Z"/>
        <path id="Trazado_89-3" class="st3" d="M395,.4l91,149.6h-173s87.1,8.3,107.6-29.1C441.1,83.5,395,.4,395,.4Z"/>
        <path id="Trazado_89-4" class="st3" d="M548,.4l91,149.6h-173s87.1,8.3,107.6-29.1c20.5-37.4-25.6-120.5-25.6-120.5Z"/>
        <path id="Trazado_89-5" class="st3" d="M701,.4l91,149.6h-173s87.1,8.3,107.6-29.1c20.5-37.4-25.6-120.5-25.6-120.5Z"/>
        <path id="Trazado_89-6" class="st3" d="M89,155.4l91,149.6H7s87.1,8.3,107.6-29.1c20.5-37.4-25.6-120.5-25.6-120.5Z"/>
        <path id="Trazado_89-7" class="st3" d="M242,155.4l91,149.6h-173s87.1,8.3,107.6-29.1c20.5-37.4-25.6-120.5-25.6-120.5Z"/>
        <path id="Trazado_89-8" class="st3" d="M395,155.4l91,149.6h-173s87.1,8.3,107.6-29.1c20.5-37.4-25.6-120.5-25.6-120.5Z"/>
        <path id="Trazado_89-9" class="st3" d="M548,155.4l91,149.6h-173s87.1,8.3,107.6-29.1c20.5-37.4-25.6-120.5-25.6-120.5Z"/>
        <path id="Trazado_89-10" class="st3" d="M701,155.4l91,149.6h-173s87.1,8.3,107.6-29.1c20.5-37.4-25.6-120.5-25.6-120.5Z"/>
        <path id="Trazado_89-11" class="st3" d="M89,310.4l91,149.6H7s87.1,8.3,107.6-29.1c20.5-37.4-25.6-120.5-25.6-120.5Z"/>
        <path id="Trazado_89-12" class="st3" d="M242,310.4l91,149.6h-173s87.1,8.3,107.6-29.1c20.5-37.4-25.6-120.5-25.6-120.5Z"/>
        <path id="Trazado_89-13" class="st3" d="M395,310.4l91,149.6h-173s87.1,8.3,107.6-29.1c20.5-37.4-25.6-120.5-25.6-120.5Z"/>
        <path id="Trazado_89-14" class="st3" d="M548,310.4l91,149.6h-173s87.1,8.3,107.6-29.1c20.5-37.4-25.6-120.5-25.6-120.5Z"/>
        <path id="Trazado_89-15" class="st3" d="M701,310.4l91,149.6h-173s87.1,8.3,107.6-29.1c20.5-37.4-25.6-120.5-25.6-120.5Z"/>
        <path id="Trazado_89-16" class="st3" d="M89,465.4l91,149.6H7s87.1,8.3,107.6-29.1c20.5-37.4-25.6-120.5-25.6-120.5Z"/>
        <path id="Trazado_89-17" class="st3" d="M242,465.4l91,149.6h-173s87.1,8.3,107.6-29.1c20.5-37.4-25.6-120.5-25.6-120.5Z"/>
        <path id="Trazado_89-18" class="st3" d="M395,465.4l91,149.6h-173s87.1,8.3,107.6-29.1c20.5-37.4-25.6-120.5-25.6-120.5Z"/>
        <path id="Trazado_89-19" class="st3" d="M548,465.4l91,149.6h-173s87.1,8.3,107.6-29.1c20.5-37.4-25.6-120.5-25.6-120.5Z"/>
        <path id="Trazado_89-20" class="st3" d="M701,465.4l91,149.6h-173s87.1,8.3,107.6-29.1c20.5-37.4-25.6-120.5-25.6-120.5Z"/>
        <path id="Trazado_89-21" class="st3" d="M89,620.4l91,149.6H7s87.1,8.3,107.6-29.1c20.5-37.4-25.6-120.5-25.6-120.5Z"/>
        <path id="Trazado_89-22" class="st3" d="M242,620.4l91,149.6h-173s87.1,8.3,107.6-29.1c20.5-37.4-25.6-120.5-25.6-120.5Z"/>
        <path id="Trazado_89-23" class="st3" d="M395,620.4l91,149.6h-173s87.1,8.3,107.6-29.1c20.5-37.4-25.6-120.5-25.6-120.5Z"/>
        <path id="Trazado_89-24" class="st3" d="M548,620.4l91,149.6h-173s87.1,8.3,107.6-29.1c20.5-37.4-25.6-120.5-25.6-120.5Z"/>
        <path id="Trazado_89-25" class="st3" d="M701,620.4l91,149.6h-173s87.1,8.3,107.6-29.1c20.5-37.4-25.6-120.5-25.6-120.5Z"/>
        <path id="Trazado_89-26" class="st3" d="M89,775.4l91,149.6H7s87.1,8.3,107.6-29.1c20.5-37.4-25.6-120.5-25.6-120.5Z"/>
        <path id="Trazado_89-27" class="st3" d="M242,775.4l91,149.6h-173s87.1,8.3,107.6-29.1c20.5-37.4-25.6-120.5-25.6-120.5Z"/>
        <path id="Trazado_89-28" class="st3" d="M395,775.4l91,149.6h-173s87.1,8.3,107.6-29.1c20.5-37.4-25.6-120.5-25.6-120.5Z"/>
        <path id="Trazado_89-29" class="st3" d="M548,775.4l91,149.6h-173s87.1,8.3,107.6-29.1c20.5-37.4-25.6-120.5-25.6-120.5Z"/>
        <path id="Trazado_89-30" class="st3" d="M701,775.4l91,149.6h-173s87.1,8.3,107.6-29.1c20.5-37.4-25.6-120.5-25.6-120.5Z"/>
        <path id="Trazado_89-31" class="st3" d="M89,930.4l91,149.6H7s87.1,8.3,107.6-29.1c20.5-37.4-25.6-120.5-25.6-120.5Z"/>
        <path id="Trazado_89-32" class="st3" d="M242,930.4l91,149.6h-173s87.1,8.3,107.6-29.1c20.5-37.4-25.6-120.5-25.6-120.5Z"/>
        <path id="Trazado_89-33" class="st3" d="M395,930.4l91,149.6h-173s87.1,8.3,107.6-29.1c20.5-37.4-25.6-120.5-25.6-120.5Z"/>
        <path id="Trazado_89-34" class="st3" d="M548,930.4l91,149.6h-173s87.1,8.3,107.6-29.1c20.5-37.4-25.6-120.5-25.6-120.5Z"/>
        <path id="Trazado_89-35" class="st3" d="M701,930.4l91,149.6h-173s87.1,8.3,107.6-29.1c20.5-37.4-25.6-120.5-25.6-120.5Z"/>
      </g>
    </g>
    <g class="st8">
      <g id="Enmascarar_grupo_1">
        <g id="Grupo_21">
          <g id="Grupo_20">
            <path id="Trazado_90" class="st7" d="M540.3,749H-305.1c-13.8,0-24.9-11.2-24.9-24.9V230.4c0-13.8,11.2-24.9,24.9-24.9h845.4c13.8,0,24.9,11.2,24.9,24.9h0v493.7c0,13.8-11.2,24.9-24.9,24.9h0"/>
            <path id="Trazado_91" class="st15" d="M-321.7,738.5V231.9c0-10.2,8.3-18.5,18.5-18.5h858.3c1.3,0,2.5.1,3.8.4-4.7-5.3-11.5-8.4-18.6-8.4H-305.1c-13.8,0-24.9,11.2-24.9,24.9h0v493.7c0,7.4,3.3,14.5,9,19.2-.4-1.5-.6-3.1-.6-4.7"/>
            <path id="Trazado_92" class="st1" d="M-319.2,205.4h873.5c6,0,10.9,4.9,10.9,10.9h0v521.7c0,6-4.9,10.9-10.9,10.9H-319.2c-6,0-10.9-4.9-10.9-10.9h0V216.3c0-6,4.9-10.9,10.9-10.9h0Z"/>
            <path id="Trazado_93" class="st7" d="M-369,749h973.1v40.7H-369v-40.7Z"/>
            <rect id="Rectángulo_28" class="st2" x="-369" y="749" width="973.1" height="40.7"/>
            <rect id="Rectángulo_29" class="st6" x="-212.8" y="749" width="11.7" height="40.7"/>
            <rect id="Rectángulo_30" class="st2" x="-212.8" y="749" width="11.7" height="40.7"/>
            <rect id="Rectángulo_31" class="st6" x="-184.4" y="749" width="11.7" height="40.7"/>
            <rect id="Rectángulo_32" class="st2" x="-184.4" y="749" width="11.7" height="40.7"/>
            <rect id="Rectángulo_33" class="st6" x="-156" y="749" width="11.7" height="40.7"/>
            <rect id="Rectángulo_34" class="st2" x="-156" y="749" width="11.7" height="40.7"/>
            <rect id="Rectángulo_35" class="st6" x="-127.6" y="749" width="11.7" height="40.7"/>
            <rect id="Rectángulo_36" class="st2" x="-127.6" y="749" width="11.7" height="40.7"/>
            <rect id="Rectángulo_37" class="st6" x="-99.2" y="749" width="11.7" height="40.7"/>
            <rect id="Rectángulo_38" class="st2" x="-99.2" y="749" width="11.7" height="40.7"/>
            <path id="Trazado_94" class="st11" d="M531.7,727.1H-296.6c-6.2,0-11.3-5.1-11.3-11.3V238.6c0-6.2,5.1-11.3,11.3-11.3h828.3c6.2,0,11.3,5.1,11.3,11.3h0v477.3c0,6.2-5.1,11.3-11.3,11.3h0"/>
            <rect id="Rectángulo_39" class="st2" x="-307.9" y="227.3" width="851" height="499.9" rx="4.9" ry="4.9"/>
            <path id="Trazado_95" class="st11" d="M509.2,270.9h-4.4v-11.4h-48.7v32.8h48.7v-11.4h4.4v-9.9Z"/>
            <path id="Trazado_96" class="st2" d="M509.2,270.9h-4.4v-11.4h-48.7v32.8h48.7v-11.4h4.4v-9.9Z"/>
            <rect id="Rectángulo_40" class="st5" x="463.4" y="267.1" width="23.6" height="16.8"/>
            <rect id="Rectángulo_41" class="st2" x="463.4" y="267.1" width="23.6" height="16.8"/>
            <path id="Trazado_97" class="st11" d="M155.2,325.3c0,22.1-17.9,39.9-39.9,39.9s-39.9-17.9-39.9-39.9c0-22.1,17.9-39.9,39.9-39.9,22,0,39.9,17.8,39.9,39.8,0,0,0,0,0,.1"/>
          </g>
        </g>
      </g>
    </g>
    <g id="Grupo_22">
      <g id="Grupo_2">
        <g class="st9">
          <g id="Grupo_1">
            <path id="Trazado_1" d="M607.2,1010.5c0,15.7-96.9,28.5-216.5,28.5s-216.5-12.7-216.5-28.5,96.9-28.5,216.5-28.5,216.5,12.7,216.5,28.5"/>
            <ellipse id="Elipse_1" class="st2" cx="390.8" cy="1010.5" rx="216.5" ry="28.5"/>
          </g>
        </g>
      </g>
      <g id="Grupo_4">
        <g id="Grupo_6">
          <path id="Trazado_2" class="st11" d="M534.9,974.1c11-35.5-17.7-55.2-17.7-55.6-.9-8.3-5.9-37.8-5.9-37.8-13.3-7.8-13.3,2.2-23.9-5.7-17.2-12.8-70.2-1.6-95.5,4.7-27.9-4.8-66.5-9.4-84.9-3-30.8,10.6-104.5,31.7-115.7,80.3-9.6,41.5,35.6,52.2,44.5,52.6,33.6,1.7,59.7,2.2,79.7,2.2,32.1,2.1,140,.7,161.5.7,37.9,0,52.4-20.3,58-38.5"/>
          <path id="Trazado_3" class="st2" d="M534.9,974.1c11-35.5-17.7-55.2-17.7-55.6-.9-8.3-5.9-37.8-5.9-37.8-13.3-7.8-13.3,2.2-23.9-5.7-17.2-12.8-70.2-1.6-95.5,4.7-27.9-4.8-66.5-9.4-84.9-3-30.8,10.6-104.5,31.7-115.7,80.3-9.6,41.5,35.6,52.2,44.5,52.6,33.6,1.7,59.7,2.2,79.7,2.2,32.1,2.1,140,.7,161.5.7,37.9,0,52.4-20.3,58-38.5Z"/>
          <path id="Trazado_4" class="st13" d="M289.9,987.5c-6.1-16-6.9-31-5-47.1l-17.2,2,8.8,68.9,24.5.5c-6.1-8-8.8-18.1-11.2-24.3"/>
          <path id="Trazado_5" class="st2" d="M289.9,987.5c-6.1-16-6.9-31-5-47.1l-17.2,2,8.8,68.9,24.5.5c-6.1-8-8.8-18.1-11.2-24.3Z"/>
          <path id="Trazado_6" class="st4" d="M275.8,1010.2l-8-67.9-17.5-6.6-37.5,40.3,42.7,34.4,20.4-.2Z"/>
          <path id="Trazado_7" class="st2" d="M275.8,1010.2l-8-67.9-17.5-6.6-37.5,40.3,42.7,34.4,20.4-.2Z"/>
          <path id="Trazado_8" class="st11" d="M478.3,879.7c4.8,3.6,7.4,3.5,10.1,3,0-1.3,0-2,0-2-6.6-3.9-9.9-3.4-12.9-2.9,1,.5,1.9,1.2,2.8,1.8"/>
          <path id="Trazado_9" class="st13" d="M282.8,864.8c5.5-9,10.5-18.3,14.9-27.9,1.8-4.4,3.3-8.7,4.7-12.8l7.7-29.9-19.8-.3c-7.2-.1-24.1-7.6-24.1-7.6-6.8-3.7-9.7-3.7-16-3.6l-9.5,18.7s-15.9-8.8-16.7-12.5c-4.2-18.3-11.3-46.2-24.8-45.8-9.8.3-11.8,9.5-15.3,9.4,0,0-38.6-22.9-43.4-11.5-3.9,9.1,21.4,24,21.4,24,0,0-34.3-3.7-14.3,17.6,0,0-26.4,7.9,9.1,41.5,31,29.4,54.8,55.1,80.1,61.3,15.7,3.9,28.3-1.8,38.4-11.8,1.7-2.2,3.5-4.3,5.5-6.2.7-.9,1.3-1.7,2-2.6"/>
          <path id="Trazado_10" class="st11" d="M180.3,775.1s-.7-13.5,4.2-22.8c3.2-.7,5.5-9.1,14.8-9.3,3.7-.1,7,1.9,9.8,5.4-9.3.6-25.3,26.8-28.7,26.7"/>
          <path id="Trazado_11" class="st11" d="M167.2,829.4c23.2,22,42.3,41.9,61.1,53.2-22.2-9.3-44-32.4-71.5-58.5-35.5-33.7-9.1-41.6-9.1-41.6-20-21.3,14.3-17.6,14.3-17.6,0,0-25.2-14.9-21.4-24,3.9-9.2,30,4,39.7,9.4-11.5-5.5-26.5-10.9-29.3-4.1-3.9,9.1,21.4,24,21.4,24,0,0-34.3-3.7-14.3,17.6,0,0-26.4,7.9,9.1,41.5"/>
          <path id="Trazado_12" class="st11" d="M180.3,750.3c1.4.7,2.9,1.4,4.2,2-.2,0-.3,0-.5,0,0,0-1.4-.8-3.7-2.1"/>
          <path id="Trazado_13" class="st2" d="M282.8,864.8c5.5-9,10.5-18.3,14.9-27.9,1.8-4.4,3.3-8.7,4.7-12.8l7.7-29.9-19.8-.3c-7.2-.1-24.1-7.6-24.1-7.6-6.8-3.7-9.7-3.7-16-3.6l-9.5,18.7s-15.9-8.8-16.7-12.5c-4.2-18.3-11.3-46.2-24.8-45.8-9.8.3-11.8,9.5-15.3,9.4,0,0-38.6-22.9-43.4-11.5-3.9,9.1,21.4,24,21.4,24,0,0-34.3-3.7-14.3,17.6,0,0-26.4,7.9,9.1,41.5,31,29.4,54.8,55.1,80.1,61.3,15.7,3.9,28.3-1.8,38.4-11.8,1.7-2.2,3.5-4.3,5.5-6.2.7-.8,1.3-1.7,2-2.6Z"/>
          <path id="Trazado_14" class="st13" d="M297.7,836.9c-4.4,9.6-9.4,18.9-14.9,27.9,6.1-8.4,11-18.2,14.9-27.9"/>
          <path id="Trazado_15" class="st2" d="M297.7,836.9c-4.4,9.6-9.4,18.9-14.9,27.9,6.1-8.4,11-18.2,14.9-27.9Z"/>
          <path id="Trazado_16" class="st4" d="M348,894.4h16.5c11-3.1,22.3-4.7,33.8-4.8,11,.2,21.9,1.8,32.5,4.8h75.2c31.9-7.7,24.5-25.7,25.4-42.9.3-5.7-.2-14.8-1-24.3.3.1.4.2.4.2l-3-25.9s7.2-1.9,6.6-5.6c-.9-6.7-6.9-20.4-7.9-25-1.3-5.7-2.7-59.2-46.8-66.8-16.7-2.9-53.6-23.3-79.3-29.6-11.6-2.8-32.6,2.9-32.6,2.9,0,0-49,12.4-55.4,13.8-7.8,1.9-15.3,4.9-22.1,9.1-12.2,7.3-28.3,24.7-29.6,39.7-.5,5.2-9.9,15.2-14.9,24.3-3.4,6.1-5.8,12.7-7.1,19.5l4-.4c23.2,14.6,67.4,10.7,67.4,10.7-1.9,10.1-4.5,20.1-7.7,29.9-1.2,4.4-2.7,8.7-4.7,12.8-3.9,9.7-8.8,19.5-14.9,27.9h0c-.6.9-1.2,1.8-2,2.6-1.7,2.2-3.5,4.2-5.5,6.2h0s-4.3,7.6-4.3,7.6c0,0,20.2-5.1,30-2.3,15.3,4.4,31.3,14,46.9,15.6"/>
          <path id="Trazado_17" class="st11" d="M308.1,803.5c-1,4.3-2.4,9.7-4.2,15.7l4.2-15.7Z"/>
          <path id="Trazado_18" class="st11" d="M510.3,722.3c-6.3-4.8-13.8-8-21.6-9.3-16.7-2.9-53.6-23.3-79.3-29.6-11.6-2.8-32.6,3-32.6,3,0,0-49,12.4-55.4,13.8-7.8,1.9-15.3,4.9-22.1,9.1-12.2,7.3-28.3,24.6-29.6,39.7-.5,5.2-9.9,15.2-14.9,24.3-2.4,4.3-4.2,8.8-5.6,13.5-2.2-1-4.3-2.1-6.3-3.3l-4,.4c1.3-6.8,3.7-13.4,7.1-19.5,5-9.1,14.4-19,14.9-24.3,1.3-15.1,17.4-32.4,29.6-39.7,6.8-4.2,14.3-7.3,22.1-9.1,6.5-1.4,55.4-13.8,55.4-13.8,0,0,21-5.8,32.6-3,25.7,6.2,62.6,26.7,79.3,29.6,12.1,1.9,23.1,8.4,30.5,18.2"/>
          <path id="Trazado_19" class="st2" d="M432.9,895h71c0-.1.2-.2.3-.2,33.8-7.5,26.1-25.8,27-43.3.3-5.7-.2-14.8-1-24.3.2.1.4.2.4.2l-3-25.9s7.2-1.9,6.6-5.6c-.9-6.7-6.9-20.4-7.9-25-1.3-5.7-2.7-59.2-46.8-66.8-16.7-2.9-53.6-23.3-79.3-29.6-11.6-2.8-32.6,2.9-32.6,2.9,0,0-49,12.4-55.4,13.8-7.8,1.9-15.3,4.9-22.1,9.1-12.2,7.3-28.3,24.6-29.6,39.7-.5,5.2-9.9,15.2-14.9,24.3-3.4,6.1-5.8,12.7-7.1,19.5,0,0,44.4,9.8,51.6,9.9l19.8.3c-1.9,10.1-4.5,20.1-7.7,29.9-1.2,4.4-2.7,8.7-4.7,12.8-3.9,9.7-8.8,19.5-14.9,27.9h0c-.6.9-1.2,1.8-2,2.6-1.7,2.2-3.5,4.2-5.5,6.2h0s-4.3,7.6-4.3,7.6c0,0,20.2-5.1,30-2.3,17.2,4.9,35.3,16.6,52.8,15.8,2.7,0,5.4.2,8,.6,11.8-3.6,24.1-5.5,36.5-5.5,10.8,0,22.7,2,34.7,5.4Z"/>
          <path id="Trazado_20" class="st13" d="M302.4,824.1c3.2-9.8,5.8-19.8,7.7-29.9l-7.7,29.9Z"/>
          <path id="Trazado_21" class="st2" d="M302.4,824.1c3.2-9.8,5.8-19.8,7.7-29.9l-7.7,29.9Z"/>
          <path id="Trazado_22" class="st13" d="M275.4,873.6c1.9-2,3.8-4,5.5-6.2-2,1.9-3.8,4-5.5,6.2"/>
          <path id="Trazado_23" class="st2" d="M275.4,873.6c1.9-2,3.8-4,5.5-6.2-2,1.9-3.8,4-5.5,6.2Z"/>
          <path id="Trazado_24" class="st2" d="M189.3,747.8c-3.4,6-8.6,15.2-9.7,21.3-.5,2.9,4.5,15.3,19.6,3.6,1.1-.9-6.9,21.4-5.4,20.2"/>
          <line id="Línea_1" class="st2" x1="224" y1="788.8" x2="253.3" y2="813.1"/>
          <path id="Trazado_25" class="st6" d="M367.5,695.5c.8,6.8,7.6,9.4,15.9,6.7,1.1-.3,2.1-.8,3.1-1.2.3-.2.6-.3,1-.5.7-.4,1.5-.8,2.2-1.2,9-5.4,15.3-14.9,14.4-22.2-.5-4.3-3.4-7-7.7-7.6-.2,0-.4,0-.6,0-.3,0-.6,0-.9,0-3.7,0-7.4.9-10.7,2.7-10.1,5.1-17.5,15.5-16.6,23.4"/>
          <path id="Trazado_26" class="st2" d="M367.5,695.5c.8,6.8,7.6,9.4,15.9,6.7,1.1-.3,2.1-.8,3.1-1.2.3-.2.6-.3,1-.5.7-.4,1.5-.8,2.2-1.2,9-5.4,15.3-14.9,14.4-22.2-.5-4.3-3.4-7-7.7-7.6-.2,0-.4,0-.6,0-.3,0-.6,0-.9,0-3.7,0-7.4.9-10.7,2.7-10.1,5.1-17.5,15.5-16.6,23.4Z"/>
          <path id="Trazado_27" class="st13" d="M415.2,659c-.1,1.4-.4,2.8-.7,4.1-.1.6-.3,1.2-.5,1.8-.5,1.9-1.1,3.7-1.9,5.5-.3.8-.7,1.5-1,2.2-4.8,9.4-13.1,15.9-22.4,17.5-3.6.7-7.3.5-10.8-.4-16.1-4-25.8-22.4-21.8-41.1,1.4-6.8,4.7-13,9.4-18,.2-.3.5-.5.8-.8.2-.2.4-.4.6-.6.3-.3.6-.6,1-.9,2.5-2.2,5.4-4,8.6-5.2.4-.2.9-.4,1.3-.5.4-.1.9-.3,1.3-.4l1.4-.3c3.1-.7,6.3-.8,9.5-.4.9.1,1.8.3,2.7.5.4.1.8.2,1.3.3s.8.3,1.2.4c.4.1.8.3,1.2.5.8.3,1.5.7,2.3,1.1.8.4,1.6.9,2.4,1.4.4.3.9.6,1.3.9,9.1,6.8,14.3,19.3,12.8,32.4"/>
          <path id="Trazado_28" class="st11" d="M386.9,689.7c-16.1-4-25.8-22.4-21.8-41.1,1.4-6.8,4.7-13,9.5-18,.3-.3.5-.5.8-.8.2-.2.4-.4.6-.6.3-.3.6-.6,1-.9,2.5-2.2,5.5-4,8.6-5.2.4-.2.9-.3,1.3-.5s.9-.3,1.3-.4l1.4-.3c.4,0,.8-.2,1.3-.2-.3,0-.5-.1-.8-.2-3.2-.5-6.4-.3-9.5.4l-1.4.3c-.4.1-.9.3-1.3.4s-.9.3-1.3.5c-3.1,1.2-6,3-8.6,5.2-.3.3-.7.6-1,.9-.2.2-.4.4-.6.6-.3.2-.5.5-.8.8-4.8,5-8,11.3-9.5,18-4.1,18.7,5.6,37.1,21.8,41.1,3.6.9,7.3,1,10.9.4-.6-.1-1.2-.2-1.9-.4"/>
          <path id="Trazado_29" class="st2" d="M415.2,659c-.1,1.4-.4,2.8-.7,4.1-.1.6-.3,1.2-.5,1.8-.5,1.9-1.1,3.7-1.9,5.5-.3.8-.7,1.5-1,2.2-4.8,9.4-13.1,15.9-22.4,17.5-3.6.7-7.3.5-10.8-.4-16.1-4-25.8-22.4-21.8-41.1,1.4-6.8,4.7-13,9.4-18,.2-.3.5-.5.8-.8.2-.2.4-.4.6-.6.3-.3.6-.6,1-.9,2.5-2.2,5.4-4,8.6-5.2.4-.2.9-.4,1.3-.5.4-.1.9-.3,1.3-.4l1.4-.3c3.1-.7,6.3-.8,9.5-.4.9.1,1.8.3,2.7.5.4.1.8.2,1.3.3s.8.3,1.2.4c.4.1.8.3,1.2.5.8.3,1.5.7,2.3,1.1.8.4,1.6.9,2.4,1.4.4.3.9.6,1.3.9,9.1,6.8,14.3,19.3,12.8,32.4Z"/>
          <path id="Trazado_30" class="st12" d="M415.2,659c-.1,1.4-.4,2.8-.7,4.1-.1.6-.3,1.2-.5,1.8-.5,1.9-1.1,3.7-1.9,5.5-.3.8-.7,1.5-1,2.2-5.2-1.5-10.1-3.7-14.6-6.5-6.8-4.3-20.8-19.1-27.1-28.5-2.6-3.8-3.9-6.8-3-7.7.2-.2.4-.4.6-.6.3-.3.6-.6,1-.9,2.5-2.2,5.4-4,8.6-5.2.4-.2.9-.4,1.3-.5.4-.1.9-.3,1.3-.4l1.4-.3c3.1-.7,6.3-.8,9.5-.4.9.1,1.8.3,2.7.5.4.1.8.2,1.3.3s.8.3,1.2.4c.4.1.8.3,1.2.5.8.3,1.5.7,2.3,1.1.8.4,1.6.9,2.4,1.4.3.2.6.4.8.6.1.1.3.2.5.3,9.1,6.8,14.3,19.3,12.8,32.4"/>
          <path id="Trazado_31" class="st2" d="M415.2,659c-.1,1.4-.4,2.8-.7,4.1-.1.6-.3,1.2-.5,1.8-.5,1.9-1.1,3.7-1.9,5.5-.3.8-.7,1.5-1,2.2-5.2-1.5-10.1-3.7-14.6-6.5-6.8-4.3-20.8-19.1-27.1-28.5-2.6-3.8-3.9-6.8-3-7.7.2-.2.4-.4.6-.6.3-.3.6-.6,1-.9,2.5-2.2,5.4-4,8.6-5.2.4-.2.9-.4,1.3-.5.4-.1.9-.3,1.3-.4l1.4-.3c3.1-.7,6.3-.8,9.5-.4.9.1,1.8.3,2.7.5.4.1.8.2,1.3.3s.8.3,1.2.4c.4.1.8.3,1.2.5.8.3,1.5.7,2.3,1.1.8.4,1.6.9,2.4,1.4.3.2.6.4.8.6.1.1.3.2.5.3,9.1,6.8,14.3,19.3,12.8,32.4Z"/>
          <path id="Trazado_32" class="st2" d="M436.1,782.5c1.7,5.7.4,16.7.4,16.7l23.3,4.1"/>
          <path id="Trazado_33" class="st2" d="M310.1,761.5c-1.7,2.4.6,35.6,0,32.6"/>
          <path id="Trazado_34" class="st13" d="M527.8,801.5h0c-20.8,5-42.3,5.9-63.4,2.6l-16.4-2.6c-.1,0,2.2,30.1,2.2,30.1l-61.7,3.7s-8.3-9.3-16.2-7.6c-1.7.3-3.3.7-4.8,1.3-.5-1-2.1-2.9-7.7-4.7-7.1-2.2-9.9.5-9.9.5,0,0-4.5-5.1-10.8-5.6-6.6-.5-29.5,13.1-30.6,25-.3,3.6,1.7,5.9,4.7,7.3t0,0c4.9,2.2,12.2,2.1,16.2,1.9h0c1.7-.1,2.8-.2,2.8-.2,0,.2,0,.5,0,.7,0,3.1,2.1,5.9,5.2,6.7,3.6,1.2,7.1-1.1,9.3-3.1.8-.7,1.5-1.5,2.2-2.4,0,0,0,1.2.1,3.1.5,7.3,3,25.5,14.4,33.5,7.2,5.1,18.5,7,29.7,7.4,0,0,0,0,0,0,21.6,0,65.3,1.8,81.3,0,56.3-6.4,56.3-13.7,57.5-33.8,1-16.5-4-64.1-4-64.1"/>
          <path id="Trazado_35" class="st11" d="M457.9,803.1l-10-1.6c-.1,0,2.2,30.1,2.2,30.1l-61.7,3.7s-8.3-9.3-16.2-7.6c-1.7.3-3.3.7-4.8,1.3-.5-1-2.1-2.9-7.7-4.7-7.1-2.2-9.9.5-9.9.5,0,0-4.5-5.1-10.8-5.6-6.6-.5-29.5,13.1-30.6,25-.3,3.6,1.7,5.9,4.8,7.3,1.5.6,3,1.1,4.6,1.3,3.5-11.3,24-23.1,30.1-22.7,6.3.5,10.8,5.6,10.8,5.6,0,0,2.9,1.9,9.9-.5,8.3-2.9,12.5,4.2,18.3,8.3,2,1.4,4.4.5,6.9,0l25.5-4.1c2.6-.4,38.4-5.1,38.4-6.2,0,0,.5-27,.3-30.3"/>
          <path id="Trazado_36" class="st11" d="M357.8,869.4c-.1-1.9-.1-3.1-.1-3.1-.7.8-1.4,1.6-2.2,2.4-1.3,1.2-2.8,2.2-4.4,2.8,1.9,7.5,5.5,15.7,12.2,20.4h0c-4-8.2-5.2-17.7-5.5-22.5"/>
          <path id="Trazado_37" class="st2" d="M527.8,801.5h0c-20.8,5-42.3,5.9-63.4,2.6l-16.4-2.6c-.1,0,2.2,30.1,2.2,30.1l-61.7,3.7s-8.3-9.3-16.2-7.6c-1.7.3-3.3.7-4.8,1.3-.5-1-2.1-2.9-7.7-4.7-7.1-2.2-9.9.5-9.9.5,0,0-4.5-5.1-10.8-5.6-6.6-.5-29.5,13.1-30.6,25-.3,3.6,1.7,5.9,4.7,7.3t0,0c4.9,2.2,12.2,2.1,16.2,1.9h0c1.7-.1,2.8-.2,2.8-.2,0,.2,0,.5,0,.7,0,3.1,2.1,5.9,5.2,6.7,3.6,1.2,7.1-1.1,9.3-3.1.8-.7,1.5-1.5,2.2-2.4,0,0,0,1.2.1,3.1.5,7.3,3,25.5,14.4,33.5,7.2,5.1,18.5,7,29.7,7.4,0,0,0,0,0,0,21.6,0,65.3,1.8,81.3,0,56.3-6.4,56.3-13.7,57.5-33.8,1-16.5-4-64.1-4-64.1Z"/>
          <path id="Trazado_38" class="st2" d="M332.2,853.4s-.2-12.7,17.6-28.4"/>
          <path id="Trazado_39" class="st2" d="M348.8,855.4s3.3-13.3,18.8-25.6"/>
          <path id="Trazado_40" class="st2" d="M351.3,849.2l-2.4,7.8c-1.9,6,6.7,16.4,22.1-1.7l7.6-7.4"/>
          <path id="Trazado_41" class="st2" d="M356.3,864.8c12.2-14.3-.5-22.2,0-22.2"/>
          <line id="Línea_2" class="st2" x1="420.2" y1="833.4" x2="469" y2="833.4"/>
          <path id="Trazado_42" class="st11" d="M378.8,903.6l-157.9-6.7-29.8-100.3c-1.7-5.7,1.6-11.7,7.3-13.4,1.1-.3,2.3-.5,3.5-.4l135.1,5.7c4.6.2,8.6,3.3,9.9,7.7l31.9,107.4Z"/>
          <path id="Trazado_43" class="st2" d="M378.8,903.6l-157.9-6.7-29.8-100.3c-1.7-5.7,1.6-11.7,7.3-13.4,1.1-.3,2.3-.5,3.5-.4l135.1,5.7c4.6.2,8.6,3.3,9.9,7.7l31.9,107.4Z"/>
          <path id="Trazado_44" class="st6" d="M279.5,840.1c-3.7-.2-6.9,2.7-7.1,6.4-.2,3.7,2.7,6.9,6.4,7.1,3.7.2,6.9-2.7,7.1-6.4,0,0,0,0,0,0,.2-3.7-2.7-6.9-6.4-7.1"/>
          <path id="Trazado_45" class="st11" d="M403.2,916.2l-177.1-7.5c-3.2-.1-5.7-2.8-5.5-6,.1-3.2,2.8-5.7,6-5.5h0l177.1,7.5c3.2.1,5.7,2.8,5.5,6s-2.8,5.7-6,5.5h0"/>
          <path id="Trazado_46" class="st2" d="M403.2,916.2l-177.1-7.5c-3.2-.1-5.7-2.8-5.5-6,.1-3.2,2.8-5.7,6-5.5h0l177.1,7.5c3.2.1,5.7,2.8,5.5,6s-2.8,5.7-6,5.5h0Z"/>
          <path id="Trazado_47" class="st11" d="M284.9,940.4c.9-4.8,2.3-9.2,3.7-9.4s67.7,1.2,84.5-2.2,94.3-44.7,144.2-10.3"/>
          <path id="Trazado_48" class="st2" d="M284.9,940.4c.9-4.8,2.3-9.2,3.7-9.4s67.7,1.2,84.5-2.2,94.3-44.7,144.2-10.3"/>
          <path id="Trazado_49" class="st11" d="M296.6,911.7c45,1.9,59.9,15,68.4,18.1"/>
          <path id="Trazado_50" class="st2" d="M296.6,911.7c45,1.9,59.9,15,68.4,18.1"/>
          <path id="Trazado_51" class="st4" d="M513.3,892.5s9.3,10.3,10.9,16.6-21.7,1.6-21.7,1.6c0,0-13-4.3-20.5-5-24.4-2.2-42.9,1-74.8,11.2,6-14-4.7-12-28.3-13.3,0,0-1.7-4.7-1.2-6,20.4.3,119.6,6.4,135.6-5.1"/>
          <path id="Trazado_52" class="st2" d="M513.3,892.5s9.3,10.3,10.9,16.6-21.7,1.6-21.7,1.6c0,0-13-4.3-20.5-5-24.4-2.2-42.9,1-74.8,11.2,6-14-4.7-12-28.3-13.3,0,0-1.7-4.7-1.2-6,20.4.3,119.6,6.4,135.6-5.1Z"/>
          <path id="Trazado_53" class="st4" d="M395.2,1013h67l11.1,17.4-78.1-17.4Z"/>
          <path id="Trazado_54" class="st2" d="M395.2,1013h67l11.1,17.4-78.1-17.4Z"/>
          <path id="Trazado_55" class="st2" d="M361.4,707.3c0,6.2,15,10.8,34.1,2.9"/>
          <path id="Trazado_56" class="st2" d="M429.1,784.1c0,6.2,7.8,10,7.8,10"/>
          <path id="Trazado_57" class="st2" d="M162,764.9c31.9,13.1,4.7,26.1-14.3,17.6"/>
          <path id="Trazado_58" class="st2" d="M155.2,784.6c31.9,13.1,4.7,26.1-14.3,17.6"/>
          <path id="Trazado_59" class="st2" d="M155.4,804.3c-9.2-7-2.9-15.4,13-11.3"/>
        </g>
      </g>
    </g>
  </g>
</svg>